<?xml version="1.0" ?><!DOCTYPE svg  PUBLIC '-//W3C//DTD SVG 1.1//EN'  'http://www.w3.org/Graphics/SVG/1.1/DTD/svg11.dtd'><svg height="512px" style="enable-background:new 0 0 512 512;" version="1.1" viewBox="0 0 512 512" width="512px" xml:space="preserve" xmlns="http://www.w3.org/2000/svg" xmlns:xlink="http://www.w3.org/1999/xlink"><g id="emoji_x2C__smiley_x2C__emotion_x2C__no_mouth"><path d="M255.708,42.817c116.905,0,211.655,94.754,211.655,211.657   c0,116.903-94.75,211.653-211.655,211.653c-116.903,0-211.657-94.75-211.657-211.653C44.051,137.571,138.805,42.817,255.708,42.817   L255.708,42.817z M190.759,150.961c16.516,0,30.006,13.394,30.006,29.906c0,16.613-13.491,30.006-30.006,30.006   c-16.512,0-30.006-13.394-30.006-30.006C160.753,164.354,174.247,150.961,190.759,150.961L190.759,150.961z M320.655,150.961   c16.512,0,30.006,13.394,30.006,29.906c0,16.613-13.494,30.006-30.006,30.006s-30.006-13.394-30.006-30.006   C290.649,164.354,304.144,150.961,320.655,150.961L320.655,150.961z" style="fill-rule:evenodd;clip-rule:evenodd;fill:#221F20;"/></g><g id="Layer_1"/></svg>